<svg width="32" height="32" viewBox="0 0 32 32" fill="none" xmlns="http://www.w3.org/2000/svg">
<path fill-rule="evenodd" clip-rule="evenodd" d="M22.7981 27.7894C22.9914 27.8907 23.2034 27.94 23.4154 27.94C23.6928 27.94 23.9688 27.8547 24.1994 27.684C24.6101 27.3854 24.8141 26.88 24.7288 26.38L23.4328 18.876L28.9261 13.5627C29.2928 13.2094 29.4234 12.6787 29.2674 12.1947C29.1127 11.7107 28.6941 11.3587 28.1914 11.2854L20.5901 10.1814L17.1941 3.34669C16.7434 2.44002 15.2554 2.44002 14.8048 3.34669L11.4087 10.1814L3.80742 11.2854C3.30475 11.3587 2.88608 11.7107 2.73142 12.1947C2.57542 12.6787 2.70608 13.2094 3.07275 13.5627L8.56608 18.876L7.27008 26.38C7.18475 26.88 7.38875 27.3854 7.79942 27.684C8.20608 27.9827 8.75008 28.024 9.20075 27.7894L15.9994 24.2374L22.7981 27.7894ZM16.6167 21.5507C16.4234 21.4507 16.2114 21.4 15.9994 21.4C15.7874 21.4 15.5754 21.4507 15.3821 21.5507L10.3567 24.1774L11.3127 18.6347C11.3887 18.2 11.2434 17.7574 10.9261 17.4494L6.87808 13.5347L12.4821 12.7187C12.9154 12.656 13.2901 12.3854 13.4847 11.9934L15.9994 6.93469L18.5141 11.9934C18.7087 12.3854 19.0834 12.656 19.5168 12.7187L25.1208 13.5347L21.0728 17.4494C20.7554 17.7574 20.6101 18.2 20.6861 18.6347L21.6421 24.1774L16.6167 21.5507Z" fill="#0D1C2E"/>
<mask id="mask0_331_428" style="mask-type:luminance" maskUnits="userSpaceOnUse" x="2" y="2" width="28" height="26">
<path fill-rule="evenodd" clip-rule="evenodd" d="M22.7981 27.7894C22.9914 27.8907 23.2034 27.94 23.4154 27.94C23.6928 27.94 23.9688 27.8547 24.1994 27.684C24.6101 27.3854 24.8141 26.88 24.7288 26.38L23.4328 18.876L28.9261 13.5627C29.2928 13.2094 29.4234 12.6787 29.2674 12.1947C29.1127 11.7107 28.6941 11.3587 28.1914 11.2854L20.5901 10.1814L17.1941 3.34669C16.7434 2.44002 15.2554 2.44002 14.8048 3.34669L11.4087 10.1814L3.80742 11.2854C3.30475 11.3587 2.88608 11.7107 2.73142 12.1947C2.57542 12.6787 2.70608 13.2094 3.07275 13.5627L8.56608 18.876L7.27008 26.38C7.18475 26.88 7.38875 27.3854 7.79942 27.684C8.20608 27.9827 8.75008 28.024 9.20075 27.7894L15.9994 24.2374L22.7981 27.7894ZM16.6167 21.5507C16.4234 21.4507 16.2114 21.4 15.9994 21.4C15.7874 21.4 15.5754 21.4507 15.3821 21.5507L10.3567 24.1774L11.3127 18.6347C11.3887 18.2 11.2434 17.7574 10.9261 17.4494L6.87808 13.5347L12.4821 12.7187C12.9154 12.656 13.2901 12.3854 13.4847 11.9934L15.9994 6.93469L18.5141 11.9934C18.7087 12.3854 19.0834 12.656 19.5168 12.7187L25.1208 13.5347L21.0728 17.4494C20.7554 17.7574 20.6101 18.2 20.6861 18.6347L21.6421 24.1774L16.6167 21.5507Z" fill="white"/>
</mask>
<g mask="url(#mask0_331_428)">
</g>
</svg>
