<svg width="32" height="32" viewBox="0 0 32 32" fill="none" xmlns="http://www.w3.org/2000/svg">
<path fill-rule="evenodd" clip-rule="evenodd" d="M22.7981 27.7894C22.9915 27.8907 23.2035 27.9401 23.4155 27.9401C23.6928 27.9401 23.9688 27.8547 24.1995 27.6841C24.6101 27.3854 24.8141 26.8801 24.7288 26.3801L23.4328 18.8761L28.9261 13.5627C29.2928 13.2094 29.4235 12.6787 29.2675 12.1947C29.1128 11.7107 28.6941 11.3587 28.1915 11.2854L20.5901 10.1814L17.1941 3.34675C16.7435 2.44008 15.2555 2.44008 14.8048 3.34675L11.4088 10.1814L3.80748 11.2854C3.30481 11.3587 2.88614 11.7107 2.73148 12.1947C2.57548 12.6787 2.70614 13.2094 3.07281 13.5627L8.56614 18.8761L7.27014 26.3801C7.18481 26.8801 7.38881 27.3854 7.79948 27.6841C8.20614 27.9827 8.75014 28.0241 9.20081 27.7894L15.9995 24.2374L22.7981 27.7894ZM16.6168 21.5507C16.4235 21.4507 16.2115 21.4001 15.9995 21.4001C15.7875 21.4001 15.5755 21.4507 15.3821 21.5507L10.3568 24.1774L11.3128 18.6347C11.3888 18.2001 11.2435 17.7574 10.9261 17.4494L6.87814 13.5347L12.4821 12.7187C12.9155 12.6561 13.2901 12.3854 13.4848 11.9934L15.9995 6.93475L18.5141 11.9934C18.7088 12.3854 19.0835 12.6561 19.5168 12.7187L25.1208 13.5347L21.0728 17.4494C20.7555 17.7574 20.6101 18.2001 20.6861 18.6347L21.6421 24.1774L16.6168 21.5507Z" fill="#0D1C2E"/>
<mask id="mask0_331_473" style="mask-type:luminance" maskUnits="userSpaceOnUse" x="2" y="2" width="28" height="26">
<path fill-rule="evenodd" clip-rule="evenodd" d="M22.7981 27.7894C22.9915 27.8907 23.2035 27.9401 23.4155 27.9401C23.6928 27.9401 23.9688 27.8547 24.1995 27.6841C24.6101 27.3854 24.8141 26.8801 24.7288 26.3801L23.4328 18.8761L28.9261 13.5627C29.2928 13.2094 29.4235 12.6787 29.2675 12.1947C29.1128 11.7107 28.6941 11.3587 28.1915 11.2854L20.5901 10.1814L17.1941 3.34675C16.7435 2.44008 15.2555 2.44008 14.8048 3.34675L11.4088 10.1814L3.80748 11.2854C3.30481 11.3587 2.88614 11.7107 2.73148 12.1947C2.57548 12.6787 2.70614 13.2094 3.07281 13.5627L8.56614 18.8761L7.27014 26.3801C7.18481 26.8801 7.38881 27.3854 7.79948 27.6841C8.20614 27.9827 8.75014 28.0241 9.20081 27.7894L15.9995 24.2374L22.7981 27.7894ZM16.6168 21.5507C16.4235 21.4507 16.2115 21.4001 15.9995 21.4001C15.7875 21.4001 15.5755 21.4507 15.3821 21.5507L10.3568 24.1774L11.3128 18.6347C11.3888 18.2001 11.2435 17.7574 10.9261 17.4494L6.87814 13.5347L12.4821 12.7187C12.9155 12.6561 13.2901 12.3854 13.4848 11.9934L15.9995 6.93475L18.5141 11.9934C18.7088 12.3854 19.0835 12.6561 19.5168 12.7187L25.1208 13.5347L21.0728 17.4494C20.7555 17.7574 20.6101 18.2001 20.6861 18.6347L21.6421 24.1774L16.6168 21.5507Z" fill="white"/>
</mask>
<g mask="url(#mask0_331_473)">
</g>
</svg>
